<?xml version="1.0" encoding="UTF-8" standalone="no"?><!-- Generator: Gravit.io --><svg xmlns="http://www.w3.org/2000/svg" xmlns:xlink="http://www.w3.org/1999/xlink" style="isolation:isolate" viewBox="604.203 2700.1656 59.399 59.4" width="59.399pt" height="59.4pt"><g><path d=" M 662.627 2729.866 C 662.627 2714.004 649.765 2701.141 633.902 2701.141 C 618.04 2701.141 605.178 2714.004 605.178 2729.866 C 605.178 2745.728 618.04 2758.591 633.902 2758.591 C 634.071 2758.591 634.239 2758.588 634.407 2758.584 L 634.407 2736.223 L 628.236 2736.223 L 628.236 2729.031 L 634.407 2729.031 L 634.407 2723.738 C 634.407 2717.6 638.154 2714.26 643.63 2714.26 C 646.252 2714.26 648.506 2714.455 649.162 2714.542 L 649.162 2720.957 L 645.387 2720.957 C 642.408 2720.957 641.831 2722.373 641.831 2724.45 L 641.831 2729.031 L 648.954 2729.031 L 648.025 2736.223 L 641.831 2736.223 L 641.831 2757.481 C 653.838 2754.039 662.627 2742.977 662.627 2729.866 Z " fill="rgb(42,60,122)"/><path d=" M 662.627 2729.866 C 662.627 2714.004 649.765 2701.141 633.902 2701.141 C 618.04 2701.141 605.178 2714.004 605.178 2729.866 C 605.178 2745.728 618.04 2758.591 633.902 2758.591 C 634.071 2758.591 634.239 2758.588 634.407 2758.584 L 634.407 2736.223 L 628.236 2736.223 L 628.236 2729.031 L 634.407 2729.031 L 634.407 2723.738 C 634.407 2717.6 638.154 2714.26 643.63 2714.26 C 646.252 2714.26 648.506 2714.455 649.162 2714.542 L 649.162 2720.957 L 645.387 2720.957 C 642.408 2720.957 641.831 2722.373 641.831 2724.45 L 641.831 2729.031 L 648.954 2729.031 L 648.025 2736.223 L 641.831 2736.223 L 641.831 2757.481 C 653.838 2754.039 662.627 2742.977 662.627 2729.866 Z " fill="none" vector-effect="non-scaling-stroke" stroke-width="0.65" stroke="rgb(255,255,255)" stroke-linejoin="miter" stroke-linecap="square" stroke-miterlimit="3"/></g></svg>