<?xml version="1.0" encoding="UTF-8" standalone="no"?><!-- Generator: Gravit.io --><svg xmlns="http://www.w3.org/2000/svg" xmlns:xlink="http://www.w3.org/1999/xlink" style="isolation:isolate" viewBox="518.753 2700.8158 58.75 58.749" width="58.75pt" height="58.749pt"><g><path d=" M 553.689 2730.19 C 553.689 2733.261 551.199 2735.751 548.127 2735.751 C 545.057 2735.751 542.568 2733.261 542.568 2730.19 C 542.568 2727.12 545.057 2724.63 548.127 2724.63 C 551.199 2724.63 553.689 2727.12 553.689 2730.19 Z " fill="rgb(42,60,122)"/><path d=" M 553.689 2730.19 C 553.689 2733.261 551.199 2735.751 548.127 2735.751 C 545.057 2735.751 542.568 2733.261 542.568 2730.19 C 542.568 2727.12 545.057 2724.63 548.127 2724.63 C 551.199 2724.63 553.689 2727.12 553.689 2730.19 Z " fill="none" vector-effect="non-scaling-stroke" stroke-width="0.65" stroke="rgb(255,255,255)" stroke-linejoin="miter" stroke-linecap="square" stroke-miterlimit="3"/><path d=" M 557.032 2723.288 C 555.927 2723.288 555.03 2722.391 555.03 2721.286 C 555.03 2720.181 555.927 2719.284 557.032 2719.284 C 558.137 2719.284 559.034 2720.181 559.034 2721.286 C 559.033 2722.391 558.137 2723.288 557.032 2723.288 Z  M 548.128 2738.757 C 543.396 2738.757 539.561 2734.922 539.561 2730.19 C 539.561 2725.46 543.396 2721.625 548.128 2721.625 C 552.858 2721.625 556.693 2725.46 556.693 2730.19 C 556.693 2734.922 552.858 2738.757 548.128 2738.757 Z  M 561.131 2720.353 C 560.864 2719.629 560.437 2718.974 559.884 2718.435 C 559.345 2717.88 558.69 2717.454 557.966 2717.187 C 557.378 2716.958 556.495 2716.687 554.868 2716.612 C 553.109 2716.533 552.582 2716.516 548.128 2716.516 C 543.674 2716.516 543.145 2716.532 541.386 2716.612 C 539.761 2716.687 538.877 2716.958 538.29 2717.187 C 537.565 2717.454 536.909 2717.88 536.372 2718.435 C 535.817 2718.974 535.391 2719.628 535.124 2720.353 C 534.895 2720.94 534.624 2721.824 534.55 2723.449 C 534.47 2725.208 534.452 2725.737 534.452 2730.19 C 534.452 2734.645 534.47 2735.173 534.55 2736.931 C 534.624 2738.559 534.895 2739.44 535.124 2740.029 C 535.391 2740.754 535.817 2741.409 536.371 2741.947 C 536.909 2742.501 537.564 2742.928 538.289 2743.195 C 538.877 2743.424 539.761 2743.695 541.386 2743.769 C 543.145 2743.85 543.673 2743.866 548.127 2743.866 C 552.582 2743.866 553.109 2743.85 554.868 2743.769 C 556.494 2743.695 557.378 2743.424 557.966 2743.195 C 559.42 2742.634 560.57 2741.483 561.131 2740.029 C 561.359 2739.44 561.631 2738.559 561.706 2736.931 C 561.786 2735.173 561.803 2734.645 561.803 2730.19 C 561.803 2725.737 561.786 2725.208 561.706 2723.449 C 561.632 2721.824 561.36 2720.94 561.131 2720.353 Z " fill="rgb(42,60,122)"/><path d=" M 557.032 2723.288 C 555.927 2723.288 555.03 2722.391 555.03 2721.286 C 555.03 2720.181 555.927 2719.284 557.032 2719.284 C 558.137 2719.284 559.034 2720.181 559.034 2721.286 C 559.033 2722.391 558.137 2723.288 557.032 2723.288 Z  M 548.128 2738.757 C 543.396 2738.757 539.561 2734.922 539.561 2730.19 C 539.561 2725.46 543.396 2721.625 548.128 2721.625 C 552.858 2721.625 556.693 2725.46 556.693 2730.19 C 556.693 2734.922 552.858 2738.757 548.128 2738.757 Z  M 561.131 2720.353 C 560.864 2719.629 560.437 2718.974 559.884 2718.435 C 559.345 2717.88 558.69 2717.454 557.966 2717.187 C 557.378 2716.958 556.495 2716.687 554.868 2716.612 C 553.109 2716.533 552.582 2716.516 548.128 2716.516 C 543.674 2716.516 543.145 2716.532 541.386 2716.612 C 539.761 2716.687 538.877 2716.958 538.29 2717.187 C 537.565 2717.454 536.909 2717.88 536.372 2718.435 C 535.817 2718.974 535.391 2719.628 535.124 2720.353 C 534.895 2720.94 534.624 2721.824 534.55 2723.449 C 534.47 2725.208 534.452 2725.737 534.452 2730.19 C 534.452 2734.645 534.47 2735.173 534.55 2736.931 C 534.624 2738.559 534.895 2739.44 535.124 2740.029 C 535.391 2740.754 535.817 2741.409 536.371 2741.947 C 536.909 2742.501 537.564 2742.928 538.289 2743.195 C 538.877 2743.424 539.761 2743.695 541.386 2743.769 C 543.145 2743.85 543.673 2743.866 548.127 2743.866 C 552.582 2743.866 553.109 2743.85 554.868 2743.769 C 556.494 2743.695 557.378 2743.424 557.966 2743.195 C 559.42 2742.634 560.57 2741.483 561.131 2740.029 C 561.359 2739.44 561.631 2738.559 561.706 2736.931 C 561.786 2735.173 561.803 2734.645 561.803 2730.19 C 561.803 2725.737 561.786 2725.208 561.706 2723.449 C 561.632 2721.824 561.36 2720.94 561.131 2720.353 Z " fill-rule="evenodd" fill="none" vector-effect="non-scaling-stroke" stroke-width="0.65" stroke="rgb(255,255,255)" stroke-linejoin="miter" stroke-linecap="square" stroke-miterlimit="3"/><path d=" M 564.708 2737.068 C 564.627 2738.843 564.345 2740.055 563.933 2741.117 C 563.066 2743.358 561.295 2745.129 559.054 2745.996 C 557.993 2746.408 556.78 2746.69 555.005 2746.771 C 553.227 2746.852 552.658 2746.872 548.128 2746.872 C 543.598 2746.872 543.029 2746.852 541.25 2746.771 C 539.476 2746.69 538.263 2746.408 537.202 2745.996 C 536.088 2745.577 535.08 2744.921 534.247 2744.071 C 533.398 2743.238 532.742 2742.23 532.323 2741.117 C 531.911 2740.056 531.629 2738.843 531.548 2737.068 C 531.466 2735.289 531.447 2734.72 531.447 2730.19 C 531.447 2725.661 531.466 2725.092 531.548 2723.313 C 531.628 2721.538 531.91 2720.325 532.322 2719.264 C 532.741 2718.151 533.398 2717.142 534.247 2716.31 C 535.08 2715.461 536.088 2714.804 537.201 2714.385 C 538.263 2713.973 539.475 2713.691 541.25 2713.61 C 543.029 2713.529 543.598 2713.509 548.128 2713.509 C 552.658 2713.509 553.227 2713.529 555.005 2713.611 C 556.78 2713.691 557.993 2713.973 559.054 2714.385 C 560.167 2714.804 561.176 2715.461 562.009 2716.31 C 562.857 2717.143 563.515 2718.151 563.933 2719.264 C 564.346 2720.325 564.627 2721.538 564.708 2723.313 C 564.789 2725.092 564.809 2725.661 564.809 2730.19 C 564.809 2734.72 564.789 2735.289 564.708 2737.068 Z  M 548.128 2701.141 C 532.087 2701.141 519.078 2714.149 519.078 2730.19 C 519.078 2746.232 532.087 2759.24 548.128 2759.24 C 564.169 2759.24 577.178 2746.232 577.178 2730.19 C 577.178 2714.149 564.169 2701.141 548.128 2701.141 Z " fill="rgb(42,60,122)"/><path d=" M 564.708 2737.068 C 564.627 2738.843 564.345 2740.055 563.933 2741.117 C 563.066 2743.358 561.295 2745.129 559.054 2745.996 C 557.993 2746.408 556.78 2746.69 555.005 2746.771 C 553.227 2746.852 552.658 2746.872 548.128 2746.872 C 543.598 2746.872 543.029 2746.852 541.25 2746.771 C 539.476 2746.69 538.263 2746.408 537.202 2745.996 C 536.088 2745.577 535.08 2744.921 534.247 2744.071 C 533.398 2743.238 532.742 2742.23 532.323 2741.117 C 531.911 2740.056 531.629 2738.843 531.548 2737.068 C 531.466 2735.289 531.447 2734.72 531.447 2730.19 C 531.447 2725.661 531.466 2725.092 531.548 2723.313 C 531.628 2721.538 531.91 2720.325 532.322 2719.264 C 532.741 2718.151 533.398 2717.142 534.247 2716.31 C 535.08 2715.461 536.088 2714.804 537.201 2714.385 C 538.263 2713.973 539.475 2713.691 541.25 2713.61 C 543.029 2713.529 543.598 2713.509 548.128 2713.509 C 552.658 2713.509 553.227 2713.529 555.005 2713.611 C 556.78 2713.691 557.993 2713.973 559.054 2714.385 C 560.167 2714.804 561.176 2715.461 562.009 2716.31 C 562.857 2717.143 563.515 2718.151 563.933 2719.264 C 564.346 2720.325 564.627 2721.538 564.708 2723.313 C 564.789 2725.092 564.809 2725.661 564.809 2730.19 C 564.809 2734.72 564.789 2735.289 564.708 2737.068 Z  M 548.128 2701.141 C 532.087 2701.141 519.078 2714.149 519.078 2730.19 C 519.078 2746.232 532.087 2759.24 548.128 2759.24 C 564.169 2759.24 577.178 2746.232 577.178 2730.19 C 577.178 2714.149 564.169 2701.141 548.128 2701.141 Z " fill-rule="evenodd" fill="none" vector-effect="non-scaling-stroke" stroke-width="0.65" stroke="rgb(255,255,255)" stroke-linejoin="miter" stroke-linecap="square" stroke-miterlimit="3"/></g></svg>