<?xml version="1.0" encoding="UTF-8" standalone="no"?><!-- Generator: Gravit.io --><svg xmlns="http://www.w3.org/2000/svg" xmlns:xlink="http://www.w3.org/1999/xlink" style="isolation:isolate" viewBox="690.3021 2700.8162 58.239 58.238" width="58.239pt" height="58.238pt"><g><path d=" M 715.835 2735.33 L 725.201 2729.935 L 715.835 2724.54 L 715.835 2735.33 Z " fill="rgb(42,60,122)"/><path d=" M 715.835 2735.33 L 725.201 2729.935 L 715.835 2724.54 L 715.835 2735.33 Z " fill="none" vector-effect="non-scaling-stroke" stroke-width="0.65" stroke="rgb(255,255,255)" stroke-linejoin="miter" stroke-linecap="square" stroke-miterlimit="3"/><path d=" M 737.413 2729.964 C 737.413 2729.964 737.413 2735.804 736.673 2738.619 C 736.257 2740.16 735.042 2741.376 733.501 2741.79 C 730.684 2742.531 719.421 2742.531 719.421 2742.531 C 719.421 2742.531 708.187 2742.531 705.342 2741.761 C 703.801 2741.347 702.585 2740.131 702.17 2738.589 C 701.429 2735.804 701.429 2729.935 701.429 2729.935 C 701.429 2729.935 701.429 2724.095 702.17 2721.279 C 702.585 2719.738 703.83 2718.493 705.342 2718.078 C 708.158 2717.337 719.421 2717.337 719.421 2717.337 C 719.421 2717.337 730.684 2717.337 733.501 2718.108 C 735.042 2718.523 736.257 2719.738 736.673 2721.279 C 737.443 2724.095 737.413 2729.964 737.413 2729.964 Z  M 719.421 2701.141 C 703.521 2701.141 690.627 2714.034 690.627 2729.935 C 690.627 2745.834 703.521 2758.729 719.421 2758.729 C 735.321 2758.729 748.216 2745.834 748.216 2729.935 C 748.216 2714.034 735.321 2701.141 719.421 2701.141 Z " fill="rgb(42,60,122)"/><path d=" M 737.413 2729.964 C 737.413 2729.964 737.413 2735.804 736.673 2738.619 C 736.257 2740.16 735.042 2741.376 733.501 2741.79 C 730.684 2742.531 719.421 2742.531 719.421 2742.531 C 719.421 2742.531 708.187 2742.531 705.342 2741.761 C 703.801 2741.347 702.585 2740.131 702.17 2738.589 C 701.429 2735.804 701.429 2729.935 701.429 2729.935 C 701.429 2729.935 701.429 2724.095 702.17 2721.279 C 702.585 2719.738 703.83 2718.493 705.342 2718.078 C 708.158 2717.337 719.421 2717.337 719.421 2717.337 C 719.421 2717.337 730.684 2717.337 733.501 2718.108 C 735.042 2718.523 736.257 2719.738 736.673 2721.279 C 737.443 2724.095 737.413 2729.964 737.413 2729.964 Z  M 719.421 2701.141 C 703.521 2701.141 690.627 2714.034 690.627 2729.935 C 690.627 2745.834 703.521 2758.729 719.421 2758.729 C 735.321 2758.729 748.216 2745.834 748.216 2729.935 C 748.216 2714.034 735.321 2701.141 719.421 2701.141 Z " fill-rule="evenodd" fill="none" vector-effect="non-scaling-stroke" stroke-width="0.65" stroke="rgb(255,255,255)" stroke-linejoin="miter" stroke-linecap="square" stroke-miterlimit="3"/></g></svg>