<?xml version="1.0" encoding="UTF-8" standalone="no"?><!-- Generator: Gravit.io --><svg xmlns="http://www.w3.org/2000/svg" xmlns:xlink="http://www.w3.org/1999/xlink" style="isolation:isolate" viewBox="695.6667 -513 140.7832 220" width="140.7832pt" height="220pt"><g><path d=" M 819.89 -339.5 C 820.329 -341.694 820.602 -343.558 820.766 -344.929 C 821.479 -351.51 822.193 -361.38 822.357 -370.811 C 823.838 -364.012 825.537 -354.635 825.976 -346.356 C 826.415 -338.404 827.183 -331.934 827.84 -326.724 C 828.114 -324.092 828.389 -321.899 828.553 -320.089 C 825.812 -325.683 822.631 -332.975 819.89 -339.5 L 819.89 -339.5 Z  M 762.476 -462.989 C 761.71 -460.632 748.22 -447.362 742.846 -447.033 L 742.242 -447.033 C 736.101 -447.033 724.038 -451.694 720.364 -454.052 C 716.69 -456.354 714.605 -460.028 711.589 -466.883 L 711.425 -467.267 C 708.738 -473.463 706.764 -477.905 708.628 -483.334 C 713.235 -496.604 717.019 -500.443 719.376 -501.265 C 720.089 -501.539 720.911 -501.649 721.898 -501.649 C 724.257 -501.649 726.944 -500.882 729.576 -500.169 C 732.153 -499.456 734.566 -498.797 736.43 -498.907 C 739.83 -499.126 742.242 -500.169 744.381 -501.1 C 746.081 -501.813 747.562 -502.471 749.152 -502.471 C 750.084 -502.471 751.071 -502.252 752.114 -501.758 C 756.006 -500.004 758.09 -494.465 760.119 -489.092 C 760.887 -487.007 761.71 -484.814 762.641 -482.95 C 765.658 -476.809 763.464 -465.567 762.476 -462.989 L 762.476 -462.989 Z  M 725.243 -457.506 C 720.672 -460.619 717.471 -465.37 716.306 -470.776 C 716.196 -471.27 715.757 -471.544 715.318 -471.434 C 714.825 -471.325 714.55 -470.886 714.66 -470.447 C 715.867 -464.69 719.376 -459.481 724.257 -456.191 C 724.367 -456.081 724.53 -456.025 724.695 -456.025 C 724.914 -456.025 725.189 -456.191 725.353 -456.409 C 725.572 -456.793 725.463 -457.342 725.243 -457.506 L 725.243 -457.506 Z  M 747.013 -466.555 C 747.013 -469.296 744.819 -470.721 740.488 -470.721 L 739.61 -470.721 C 736.979 -470.612 734.894 -469.132 733.963 -467.651 C 733.359 -466.663 733.195 -465.622 733.579 -464.799 C 734.182 -463.428 738.678 -457.89 741.311 -457.89 C 744.272 -457.89 747.068 -465.019 747.013 -466.555 L 747.013 -466.555 Z  M 818.518 -347.671 C 817.915 -341.968 814.515 -328.315 810.786 -316.634 C 803.22 -293 799.709 -293 798.394 -293 C 791.924 -293 787.043 -300.787 784.576 -308.135 C 783.314 -311.974 773.992 -321.954 766.534 -329.465 C 760.921 -340.037 756.664 -351.277 753.868 -362.916 C 747.397 -389.675 746.684 -407.058 751.565 -420.931 C 751.838 -421.643 751.455 -422.411 750.742 -422.686 C 750.029 -422.96 749.261 -422.576 748.987 -421.864 C 743.943 -407.442 744.601 -389.62 751.236 -362.312 C 753.977 -351.126 757.597 -341.859 760.558 -335.443 C 760.119 -335.827 759.735 -336.21 759.406 -336.539 C 757.103 -338.075 727.383 -357.816 720.638 -365.109 C 714.058 -372.237 711.644 -389.73 710.329 -399.107 C 710.219 -399.82 710.164 -400.478 710.055 -401.081 C 709.616 -404.097 709.725 -408.265 709.835 -412.706 C 709.945 -418.463 710.109 -424.77 709.232 -429.924 C 712.193 -426.908 715.263 -423.454 716.909 -420.383 C 717.183 -419.944 717.621 -419.67 718.115 -419.67 C 718.334 -419.67 718.554 -419.725 718.773 -419.834 C 719.431 -420.218 719.705 -421.041 719.321 -421.698 C 716.744 -426.415 711.535 -431.624 707.586 -435.353 C 706.6 -437.546 705.448 -439.575 704.186 -441.659 C 700.677 -447.581 696.62 -454.326 695.797 -468.309 C 694.536 -488.872 702.761 -500.498 706.381 -504.555 C 710.109 -508.777 719.102 -513 730.728 -513 L 733.469 -513 C 743.12 -513 754.032 -512.177 761.216 -502.8 C 765.768 -496.933 768.619 -487.118 771.141 -478.453 C 772.95 -472.202 774.65 -466.389 776.295 -464.854 C 780.518 -460.961 786.057 -446.704 786.988 -444.181 C 804.755 -429.705 815.503 -407.058 818.464 -395.323 C 821.315 -384.136 819.835 -360.118 818.518 -347.671 Z  M 722.282 -443.249 L 713.29 -449.5 C 712.906 -449.774 712.412 -449.666 712.138 -449.282 C 711.864 -448.898 711.973 -448.404 712.357 -448.13 L 721.35 -441.879 C 721.514 -441.769 721.679 -441.714 721.844 -441.714 C 722.063 -441.714 722.337 -441.824 722.502 -442.043 C 722.776 -442.426 722.666 -442.92 722.282 -443.249 L 722.282 -443.249 Z  M 765.219 -462.003 C 765.931 -464.141 768.782 -476.59 765.164 -484.101 C 764.287 -485.856 763.573 -487.885 762.751 -490.024 C 760.558 -495.946 758.255 -502.033 753.319 -504.227 C 751.948 -504.829 750.578 -505.158 749.261 -505.158 C 747.123 -505.158 745.313 -504.39 743.394 -503.568 C 741.366 -502.691 739.226 -501.813 736.32 -501.594 C 734.839 -501.484 732.701 -502.087 730.398 -502.746 C 727.712 -503.514 724.695 -504.335 721.953 -504.335 C 720.693 -504.335 719.541 -504.172 718.499 -503.788 C 714.166 -502.197 710.109 -495.781 706.106 -484.156 C 703.912 -477.686 706.161 -472.586 709.012 -466.116 L 709.177 -465.732 C 711.919 -459.591 714.331 -454.655 718.992 -451.694 C 722.995 -449.117 735.607 -444.236 742.352 -444.236 L 743.12 -444.236 C 749.755 -444.675 764.067 -458.713 765.219 -462.003 L 765.219 -462.003 Z  M 754.965 -443.688 L 769.77 -457.945 C 770.099 -458.274 770.099 -458.768 769.77 -459.097 C 769.441 -459.426 768.948 -459.426 768.619 -459.097 L 753.813 -444.84 C 753.484 -444.51 753.484 -444.017 753.813 -443.688 C 753.977 -443.523 754.197 -443.413 754.416 -443.413 C 754.581 -443.413 754.8 -443.468 754.965 -443.688 Z  M 760.996 -428.389 C 761.161 -428.279 761.38 -428.17 761.6 -428.17 C 761.819 -428.17 762.039 -428.225 762.202 -428.389 C 764.122 -430.253 765.219 -432.775 765.274 -435.408 C 765.274 -435.846 764.89 -436.23 764.451 -436.23 C 764.012 -436.175 763.628 -435.846 763.628 -435.408 C 763.573 -433.214 762.641 -431.076 761.051 -429.54 C 760.722 -429.211 760.722 -428.717 760.996 -428.389 L 760.996 -428.389 Z  M 775.034 -332.208 C 768.556 -339.959 764.243 -349.286 762.531 -359.242 C 762.476 -359.68 762.039 -359.955 761.6 -359.9 C 761.161 -359.845 760.887 -359.406 760.942 -358.967 C 762.696 -348.713 767.138 -339.117 773.828 -331.166 C 773.992 -331.001 774.266 -330.892 774.486 -330.892 C 774.705 -330.892 774.87 -331.001 775.034 -331.111 C 775.418 -331.385 775.473 -331.934 775.034 -332.208 Z  M 776.13 -445.169 C 775.693 -445.224 775.254 -444.949 775.144 -444.51 C 774.376 -440.782 772.895 -437.108 770.812 -433.927 C 770.538 -433.543 770.647 -433.05 771.031 -432.775 C 771.141 -432.72 771.306 -432.666 771.47 -432.666 C 771.744 -432.666 772.019 -432.83 772.183 -433.05 C 774.376 -436.394 775.966 -440.233 776.734 -444.181 C 776.843 -444.62 776.569 -445.059 776.13 -445.169 L 776.13 -445.169 Z  M 778.873 -437.656 C 780.682 -441.55 781.176 -445.99 780.243 -450.158 C 780.203 -450.47 779.986 -450.732 779.688 -450.831 C 779.39 -450.931 779.061 -450.851 778.841 -450.626 C 778.621 -450.402 778.547 -450.071 778.654 -449.774 C 779.53 -445.99 779.038 -441.933 777.392 -438.369 C 777.173 -437.93 777.392 -437.492 777.776 -437.272 C 777.886 -437.217 777.995 -437.217 778.105 -437.217 C 778.434 -437.217 778.708 -437.382 778.873 -437.656 L 778.873 -437.656 Z  M 787.317 -325.736 L 780.627 -341.804 C 780.408 -342.243 779.969 -342.407 779.53 -342.243 C 779.091 -342.023 778.928 -341.585 779.091 -341.146 L 785.782 -325.079 C 785.947 -324.75 786.22 -324.586 786.549 -324.586 C 786.659 -324.586 786.769 -324.586 786.878 -324.64 C 787.317 -324.805 787.482 -325.299 787.317 -325.736 L 787.317 -325.736 Z  M 798.339 -327.492 L 796.036 -342.133 C 795.982 -342.572 795.543 -342.846 795.104 -342.79 C 794.665 -342.735 794.391 -342.298 794.446 -341.859 L 796.75 -327.217 C 796.803 -326.779 797.187 -326.504 797.571 -326.504 L 797.681 -326.504 C 798.12 -326.559 798.449 -326.998 798.339 -327.492 Z  M 813.31 -356.389 C 812.816 -356.445 812.432 -356.116 812.377 -355.677 C 811.554 -348.549 809.855 -341.53 807.332 -334.785 C 807.167 -334.401 807.387 -333.907 807.825 -333.743 C 807.88 -333.688 807.99 -333.688 808.1 -333.688 C 808.429 -333.688 808.758 -333.907 808.868 -334.236 C 811.39 -341.036 813.145 -348.22 814.022 -355.458 C 814.077 -355.952 813.747 -356.336 813.31 -356.389 L 813.31 -356.389 Z  M 740.543 -468.035 L 739.775 -468.035 C 737.745 -467.98 736.265 -466.445 736.156 -465.842 C 736.869 -464.251 740.269 -461.071 741.256 -460.687 C 742.297 -461.4 744.272 -465.513 744.327 -466.61 C 744.327 -466.993 744.327 -468.035 740.543 -468.035 Z  M 835.682 -294.864 C 833.544 -299.964 830.583 -307.806 829.266 -312.686 C 826.36 -317.786 822.302 -326.888 818.683 -335.333 C 817.202 -329.191 815.228 -321.899 813.09 -315.209 C 812.267 -312.686 811.554 -310.438 810.841 -308.463 C 812.377 -306.819 814.241 -304.845 816.161 -302.87 C 824.715 -294.152 827.348 -293 828.773 -293 L 836.45 -293 L 835.682 -294.864 Z  M 741.913 -326.067 C 746.465 -327.931 751.565 -326.395 754.855 -323.598 L 758.31 -332.098 L 758.31 -332.153 C 758.255 -332.373 758.255 -332.592 758.31 -332.81 C 758.255 -332.865 758.145 -332.92 758.09 -333.03 C 757.377 -333.523 754.087 -335.717 749.645 -338.733 C 749.042 -338.13 748.385 -337.581 747.726 -337.252 C 745.697 -336.21 743.888 -335.663 741.913 -335.114 C 738.952 -334.291 735.882 -333.414 732.591 -330.672 C 729.137 -327.821 727.82 -326.011 728.204 -324.311 C 728.369 -323.598 728.863 -322.666 730.508 -322.173 C 732.372 -321.625 734.072 -322.446 736.869 -323.818 C 738.184 -324.476 739.83 -325.244 741.913 -326.067 L 741.913 -326.067 Z  M 764.78 -315.099 C 765 -316.963 765.658 -320.473 767.138 -324.092 C 764.506 -326.779 762.039 -329.246 760.009 -331.166 L 753.484 -315.154 C 749.81 -315.099 737.801 -314.715 734.127 -311.645 C 732.975 -310.657 732.482 -309.122 732.921 -307.861 C 733.14 -307.312 733.798 -306.051 735.882 -306.051 L 772.456 -306.051 C 772.621 -306.051 772.895 -305.996 773.169 -305.996 C 773.937 -305.996 774.98 -306.161 775.638 -307.038 C 776.295 -307.916 776.295 -309.122 775.528 -310.603 C 774.157 -313.234 770.318 -314.88 764.78 -315.099 L 764.78 -315.099 Z " fill="rgb(255,201,255)"/></g></svg>